<svg width="12" height="11" viewBox="0 0 12 11" fill="none" xmlns="http://www.w3.org/2000/svg">
<g id="arrows">
<g id="arrow-down-left">
<path id="Vector" d="M11.2008 1.07998L11.2008 9.47998C11.2008 9.7452 11.0954 9.99955 10.9079 10.1871C10.7204 10.3746 10.466 10.48 10.2008 10.48C9.93556 10.48 9.68121 10.3746 9.49367 10.1871C9.30614 9.99955 9.20078 9.7452 9.20078 9.47998L9.20078 2.07998L1.80078 2.07998C1.53556 2.07998 1.28121 1.97462 1.09367 1.78709C0.906137 1.59955 0.800781 1.3452 0.800781 1.07998C0.800781 0.814764 0.906137 0.56041 1.09367 0.372873C1.28121 0.185337 1.53556 0.0799808 1.80078 0.0799808L10.2008 0.0799804C10.466 0.0799804 10.7204 0.185337 10.9079 0.372873C11.0954 0.560409 11.2008 0.814764 11.2008 1.07998Z" fill="white"/>
<path id="Vector_2" opacity="0.3" d="M11.1998 1.07995C11.1993 1.21226 11.1725 1.34314 11.121 1.46502C11.0695 1.58689 10.9943 1.69734 10.8998 1.78995L2.50983 10.18C2.31853 10.3438 2.07245 10.4294 1.82078 10.4197C1.5691 10.4099 1.33036 10.3056 1.15227 10.1275C0.974174 9.94942 0.869842 9.71068 0.860121 9.45901C0.8504 9.20733 0.936006 8.96126 1.09983 8.76995L9.48983 0.379952C9.6291 0.23953 9.80689 0.143559 10.0007 0.104174C10.1945 0.0647894 10.3957 0.0837589 10.5787 0.158684C10.7617 0.23361 10.9184 0.361127 11.029 0.525111C11.1395 0.689094 11.199 0.88218 11.1998 1.07995Z" fill="white"/>
</g>
</g>
</svg>
